<?xml version="1.0" standalone="no"?>
<!DOCTYPE svg PUBLIC "-//W3C//DTD SVG 20010904//EN"
 "http://www.w3.org/TR/2001/REC-SVG-20010904/DTD/svg10.dtd">
<svg version="1.0" xmlns="http://www.w3.org/2000/svg"
 width="1480.000000pt" height="820.000000pt" viewBox="0 0 1480.000000 820.000000"
 preserveAspectRatio="xMidYMid meet">

<g transform="translate(0.000000,820.000000) scale(0.100000,-0.100000)"
fill="#FFF" stroke="#fff">
<path d="M0 4100 l0 -4100 7400 0 7400 0 0 4100 0 4100 -7400 0 -7400 0 0
-4100z m4597 2468 c-3 -7 -5 -2 -5 12 0 14 2 19 5 13 2 -7 2 -19 0 -25z
m-3317 -228 c0 -13 7 -20 20 -20 13 0 20 -7 20 -20 0 -13 7 -20 20 -20 13 0
20 -7 20 -20 0 -17 7 -20 40 -20 33 0 40 -3 40 -20 0 -18 7 -20 80 -20 73 0
80 -2 80 -20 0 -17 7 -20 40 -20 33 0 40 -3 40 -20 0 -17 7 -20 40 -20 33 0
40 -3 40 -20 0 -13 7 -20 20 -20 13 0 20 -7 20 -20 0 -13 7 -20 20 -20 13 0
20 -7 20 -20 0 -13 7 -20 20 -20 13 0 20 -7 20 -20 0 -13 7 -20 20 -20 17 0
20 -7 20 -40 0 -33 3 -40 20 -40 17 0 20 -7 20 -40 0 -33 3 -40 20 -40 18 0
20 -7 20 -80 l0 -80 40 0 c33 0 40 -3 40 -20 0 -17 7 -20 40 -20 33 0 40 -3
40 -20 0 -13 7 -20 20 -20 13 0 20 -7 20 -20 0 -18 7 -20 60 -20 53 0 60 2 60
20 0 18 7 20 80 20 73 0 80 -2 80 -20 0 -13 7 -20 20 -20 13 0 20 -7 20 -20 0
-13 7 -20 20 -20 13 0 20 -7 20 -20 0 -13 7 -20 20 -20 17 0 20 -7 20 -40 0
-33 3 -40 20 -40 13 0 20 -7 20 -20 0 -18 7 -20 80 -20 73 0 80 -2 80 -20 0
-18 7 -20 60 -20 53 0 60 -2 60 -20 0 -19 -7 -20 -180 -20 -173 0 -180 1 -180
20 0 13 -7 20 -20 20 -13 0 -20 7 -20 20 0 17 -7 20 -40 20 -33 0 -40 -3 -40
-20 0 -20 -7 -20 -340 -20 -333 0 -340 0 -340 20 0 17 -7 20 -40 20 l-40 0 0
40 0 40 -40 0 c-33 0 -40 3 -40 20 0 17 -7 20 -40 20 -33 0 -40 3 -40 20 0 13
-7 20 -20 20 -13 0 -20 -7 -20 -20 0 -13 -7 -20 -20 -20 -13 0 -20 -7 -20 -20
0 -18 -7 -20 -60 -20 -53 0 -60 2 -60 20 0 13 -7 20 -20 20 -17 0 -20 7 -20
40 0 33 3 40 20 40 19 0 20 7 20 140 l0 140 40 0 c33 0 40 3 40 20 0 13 7 20
20 20 13 0 20 7 20 20 0 17 -7 20 -40 20 -33 0 -40 3 -40 20 0 13 -7 20 -20
20 -13 0 -20 7 -20 20 0 13 -7 20 -20 20 -17 0 -20 7 -20 40 0 33 -3 40 -20
40 -18 0 -20 7 -20 80 l0 80 -140 0 c-133 0 -140 1 -140 20 0 13 7 20 20 20
13 0 20 7 20 20 0 13 7 20 20 20 17 0 20 7 20 40 l0 40 120 0 c113 0 120 -1
120 -20z m2680 -80 c0 -18 7 -20 60 -20 53 0 60 -2 60 -20 0 -13 7 -20 20 -20
13 0 20 -7 20 -20 0 -13 7 -20 20 -20 13 0 20 -7 20 -20 0 -13 7 -20 20 -20
17 0 20 -7 20 -40 0 -33 3 -40 20 -40 13 0 20 -7 20 -20 0 -19 7 -20 100 -20
93 0 100 -1 100 -20 0 -17 7 -20 40 -20 33 0 40 -3 40 -20 0 -19 7 -20 160
-20 153 0 160 -1 160 -20 0 -17 7 -20 40 -20 33 0 40 -3 40 -20 0 -13 7 -20
20 -20 13 0 20 -7 20 -20 0 -13 7 -20 20 -20 13 0 20 -7 20 -20 0 -13 7 -20
20 -20 18 0 20 -7 20 -60 0 -53 2 -60 20 -60 13 0 20 -7 20 -20 0 -18 7 -20
80 -20 l80 0 0 -60 c0 -53 2 -60 20 -60 13 0 20 -7 20 -20 0 -19 7 -20 100
-20 l100 0 0 40 c0 33 -3 40 -20 40 -13 0 -20 7 -20 20 0 18 -7 20 -80 20 -73
0 -80 2 -80 20 0 19 7 20 160 20 153 0 160 -1 160 -20 0 -17 7 -20 40 -20 33
0 40 -3 40 -20 0 -18 7 -20 80 -20 73 0 80 -2 80 -20 0 -17 7 -20 40 -20 33 0
40 -3 40 -20 0 -13 7 -20 20 -20 17 0 20 -7 20 -40 0 -33 3 -40 20 -40 13 0
20 -7 20 -20 0 -19 7 -20 120 -20 113 0 120 -1 120 -20 0 -13 7 -20 20 -20 13
0 20 -7 20 -20 0 -13 7 -20 20 -20 13 0 20 -7 20 -20 0 -18 7 -20 60 -20 53 0
60 -2 60 -20 0 -19 7 -20 100 -20 93 0 100 -1 100 -20 0 -13 7 -20 20 -20 13
0 20 -7 20 -20 0 -13 7 -20 20 -20 13 0 20 -7 20 -20 0 -13 7 -20 20 -20 13 0
20 -7 20 -20 0 -18 7 -20 60 -20 53 0 60 -2 60 -20 0 -20 -7 -20 -340 -20
l-340 0 0 -40 0 -40 -80 0 c-73 0 -80 -2 -80 -20 0 -13 7 -20 20 -20 13 0 20
-7 20 -20 0 -13 7 -20 20 -20 13 0 20 -7 20 -20 0 -19 7 -20 120 -20 113 0
120 -1 120 -20 0 -17 7 -20 40 -20 33 0 40 -3 40 -20 0 -18 7 -20 60 -20 l60
0 0 -40 c0 -33 3 -40 20 -40 17 0 20 -7 20 -40 0 -33 3 -40 20 -40 19 0 20 -7
20 -120 0 -113 1 -120 20 -120 13 0 20 -7 20 -20 0 -13 7 -20 20 -20 17 0 20
7 20 40 l0 40 60 0 c53 0 60 -2 60 -20 0 -17 7 -20 40 -20 33 0 40 -3 40 -20
0 -13 7 -20 20 -20 13 0 20 7 20 20 0 17 7 20 40 20 33 0 40 3 40 20 0 13 7
20 20 20 13 0 20 7 20 20 0 17 7 20 40 20 33 0 40 3 40 20 0 19 7 20 140 20
133 0 140 -1 140 -20 0 -17 7 -20 40 -20 33 0 40 3 40 20 0 13 -7 20 -20 20
-13 0 -20 7 -20 20 0 13 -7 20 -20 20 -18 0 -20 7 -20 60 0 53 -2 60 -20 60
-13 0 -20 7 -20 20 0 13 -7 20 -20 20 -18 0 -20 7 -20 80 l0 80 -40 0 c-33 0
-40 3 -40 20 0 18 -7 20 -60 20 l-60 0 0 60 0 60 -40 0 c-33 0 -40 -3 -40 -20
0 -13 -7 -20 -20 -20 -13 0 -20 -7 -20 -20 0 -13 -7 -20 -20 -20 -17 0 -20 7
-20 40 0 33 3 40 20 40 13 0 20 7 20 20 0 17 7 20 40 20 33 0 40 3 40 20 0 17
7 20 40 20 33 0 40 3 40 20 0 18 7 20 60 20 53 0 60 2 60 20 0 18 7 20 80 20
73 0 80 2 80 20 0 18 7 20 60 20 53 0 60 -2 60 -20 0 -17 7 -20 40 -20 33 0
40 -3 40 -20 0 -13 7 -20 20 -20 13 0 20 -7 20 -20 0 -13 7 -20 20 -20 13 0
20 -7 20 -20 0 -13 7 -20 20 -20 13 0 20 -7 20 -20 0 -13 7 -20 20 -20 13 0
20 -7 20 -20 0 -13 7 -20 20 -20 13 0 20 -7 20 -20 0 -13 7 -20 20 -20 13 0
20 -7 20 -20 0 -17 7 -20 40 -20 33 0 40 -3 40 -20 0 -17 7 -20 40 -20 33 0
40 -3 40 -20 0 -13 7 -20 20 -20 17 0 20 -7 20 -40 0 -33 3 -40 20 -40 18 0
20 -7 20 -60 l0 -60 60 0 c53 0 60 -2 60 -20 0 -18 7 -20 80 -20 73 0 80 -2
80 -20 0 -17 7 -20 40 -20 33 0 40 -3 40 -20 0 -17 7 -20 40 -20 33 0 40 -3
40 -20 0 -13 7 -20 20 -20 13 0 20 -7 20 -20 0 -13 7 -20 20 -20 13 0 20 -7
20 -20 0 -17 7 -20 40 -20 33 0 40 -3 40 -20 0 -18 7 -20 60 -20 53 0 60 -2
60 -20 0 -19 7 -20 120 -20 113 0 120 -1 120 -20 0 -19 7 -20 100 -20 93 0
100 -1 100 -20 0 -19 7 -20 260 -20 253 0 260 -1 260 -20 0 -20 -7 -20 -300
-20 -293 0 -300 0 -300 20 0 18 -7 20 -80 20 -73 0 -80 2 -80 20 0 19 -7 20
-140 20 -133 0 -140 -1 -140 -20 0 -19 -7 -20 -200 -20 -193 0 -200 1 -200 20
0 13 7 20 20 20 13 0 20 7 20 20 0 18 -7 20 -80 20 -73 0 -80 2 -80 20 0 13
-7 20 -20 20 -13 0 -20 7 -20 20 0 18 -7 20 -60 20 -53 0 -60 2 -60 20 0 18
-7 20 -80 20 l-80 0 0 -40 c0 -33 -3 -40 -20 -40 -13 0 -20 -7 -20 -20 0 -13
-7 -20 -20 -20 -13 0 -20 -7 -20 -20 0 -13 -7 -20 -20 -20 -17 0 -20 -7 -20
-40 0 -33 3 -40 20 -40 13 0 20 -7 20 -20 0 -18 7 -20 60 -20 53 0 60 -2 60
-20 0 -19 7 -20 100 -20 93 0 100 -1 100 -20 0 -17 -7 -20 -40 -20 -33 0 -40
-3 -40 -20 0 -18 7 -20 80 -20 73 0 80 -2 80 -20 0 -13 7 -20 20 -20 13 0 20
-7 20 -20 0 -13 7 -20 20 -20 17 0 20 -7 20 -40 0 -33 3 -40 20 -40 13 0 20
-7 20 -20 0 -17 7 -20 40 -20 33 0 40 -3 40 -20 0 -18 7 -20 60 -20 53 0 60
-2 60 -20 0 -18 7 -20 80 -20 73 0 80 -2 80 -20 0 -13 7 -20 20 -20 13 0 20
-7 20 -20 0 -20 -7 -20 -380 -20 -373 0 -380 0 -380 20 0 19 -7 20 -100 20
-93 0 -100 -1 -100 -20 0 -17 -7 -20 -40 -20 -33 0 -40 -3 -40 -20 0 -19 -7
-20 -120 -20 l-120 0 0 40 0 40 -40 0 c-33 0 -40 -3 -40 -20 0 -13 -7 -20 -20
-20 -13 0 -20 -7 -20 -20 0 -19 -7 -20 -140 -20 -133 0 -140 1 -140 20 0 13
-7 20 -20 20 -17 0 -20 7 -20 40 l0 40 -40 0 -40 0 0 40 0 40 -100 0 c-93 0
-100 -1 -100 -20 0 -19 -7 -20 -120 -20 l-120 0 0 40 c0 33 -3 40 -20 40 -18
0 -20 7 -20 60 0 53 -2 60 -20 60 -13 0 -20 7 -20 20 0 13 -7 20 -20 20 -13 0
-20 7 -20 20 0 17 -7 20 -40 20 -33 0 -40 -3 -40 -20 0 -17 -7 -20 -40 -20
-33 0 -40 -3 -40 -20 0 -18 -7 -20 -80 -20 -73 0 -80 2 -80 20 0 13 7 20 20
20 13 0 20 7 20 20 0 19 -7 20 -220 20 -213 0 -220 1 -220 20 0 18 -7 20 -60
20 l-60 0 0 40 0 40 -40 0 c-33 0 -40 3 -40 20 0 19 -7 20 -120 20 -113 0
-120 1 -120 20 0 13 7 20 20 20 13 0 20 7 20 20 0 18 7 20 60 20 53 0 60 2 60
20 0 13 7 20 20 20 13 0 20 7 20 20 0 19 7 20 100 20 93 0 100 1 100 20 0 13
-7 20 -20 20 -13 0 -20 7 -20 20 0 18 -7 20 -60 20 -53 0 -60 2 -60 20 0 19
-7 20 -100 20 l-100 0 0 40 c0 33 3 40 20 40 13 0 20 7 20 20 0 13 7 20 20 20
13 0 20 7 20 20 0 13 7 20 20 20 13 0 20 7 20 20 0 17 7 20 40 20 l40 0 0 40
c0 33 -3 40 -20 40 -17 0 -20 7 -20 40 l0 40 -40 0 c-33 0 -40 3 -40 20 0 18
-7 20 -60 20 -53 0 -60 -2 -60 -20 0 -17 7 -20 40 -20 33 0 40 -3 40 -20 0
-13 7 -20 20 -20 17 0 20 -7 20 -40 l0 -40 -40 0 c-33 0 -40 -3 -40 -20 0 -13
-7 -20 -20 -20 -13 0 -20 -7 -20 -20 0 -19 -7 -20 -100 -20 -93 0 -100 1 -100
20 0 13 -7 20 -20 20 -13 0 -20 7 -20 20 0 18 -7 20 -80 20 l-80 0 0 40 0 40
-40 0 c-33 0 -40 -3 -40 -20 0 -13 -7 -20 -20 -20 -18 0 -20 7 -20 60 0 53 2
60 20 60 18 0 20 7 20 60 l0 60 60 0 c53 0 60 2 60 20 0 19 -7 20 -200 20
-193 0 -200 1 -200 20 0 18 -7 20 -80 20 -73 0 -80 2 -80 20 0 13 -7 20 -20
20 -13 0 -20 7 -20 20 0 17 -7 20 -40 20 -33 0 -40 -3 -40 -20 0 -19 -7 -20
-120 -20 -113 0 -120 1 -120 20 0 18 -7 20 -60 20 l-60 0 0 100 c0 93 -1 100
-20 100 -13 0 -20 -7 -20 -20 0 -13 -7 -20 -20 -20 -13 0 -20 -7 -20 -20 0
-17 -7 -20 -40 -20 -33 0 -40 -3 -40 -20 0 -13 -7 -20 -20 -20 -13 0 -20 -7
-20 -20 0 -13 -7 -20 -20 -20 -17 0 -20 7 -20 40 l0 40 -60 0 c-53 0 -60 -2
-60 -20 0 -18 -7 -20 -60 -20 -53 0 -60 -2 -60 -20 0 -18 -7 -20 -60 -20 l-60
0 0 40 c0 33 -3 40 -20 40 -18 0 -20 7 -20 80 l0 80 -40 0 c-33 0 -40 -3 -40
-20 0 -17 -7 -20 -40 -20 -33 0 -40 3 -40 20 0 13 7 20 20 20 13 0 20 7 20 20
0 13 7 20 20 20 13 0 20 7 20 20 0 13 7 20 20 20 13 0 20 7 20 20 0 13 7 20
20 20 13 0 20 7 20 20 0 19 7 20 120 20 113 0 120 1 120 20 0 17 7 20 40 20
33 0 40 -3 40 -20 0 -13 -7 -20 -20 -20 -18 0 -20 -7 -20 -60 0 -53 2 -60 20
-60 13 0 20 -7 20 -20 0 -17 7 -20 40 -20 33 0 40 3 40 20 0 13 7 20 20 20 13
0 20 7 20 20 0 13 -7 20 -20 20 -18 0 -20 7 -20 60 0 53 -2 60 -20 60 -13 0
-20 7 -20 20 0 13 7 20 20 20 13 0 20 7 20 20 0 17 7 20 40 20 33 0 40 3 40
20 0 17 7 20 40 20 33 0 40 3 40 20 0 18 7 20 80 20 73 0 80 -2 80 -20 0 -13
7 -20 20 -20 13 0 20 -7 20 -20 0 -13 7 -20 20 -20 13 0 20 -7 20 -20 0 -19 7
-20 100 -20 93 0 100 -1 100 -20 0 -13 7 -20 20 -20 17 0 20 -7 20 -40 0 -33
3 -40 20 -40 13 0 20 -7 20 -20 0 -18 7 -20 80 -20 73 0 80 -2 80 -20 0 -17 7
-20 40 -20 33 0 40 -3 40 -20 0 -13 7 -20 20 -20 13 0 20 -7 20 -20 0 -13 7
-20 20 -20 13 0 20 -7 20 -20 0 -13 7 -20 20 -20 17 0 20 -7 20 -40 0 -33 3
-40 20 -40 13 0 20 -7 20 -20 0 -13 7 -20 20 -20 13 0 20 -7 20 -20 0 -13 7
-20 20 -20 13 0 20 -7 20 -20 0 -17 7 -20 40 -20 33 0 40 -3 40 -20 0 -13 7
-20 20 -20 13 0 20 -7 20 -20 0 -13 7 -20 20 -20 13 0 20 -7 20 -20 0 -18 7
-20 80 -20 l80 0 0 40 0 40 -40 0 c-33 0 -40 3 -40 20 0 13 7 20 20 20 13 0
20 7 20 20 0 17 7 20 40 20 33 0 40 3 40 20 0 19 7 20 140 20 133 0 140 -1
140 -20 0 -17 7 -20 40 -20 33 0 40 -3 40 -20 0 -17 7 -20 40 -20 33 0 40 3
40 20 0 13 7 20 20 20 18 0 20 7 20 80 0 73 -2 80 -20 80 -13 0 -20 7 -20 20
0 17 -7 20 -40 20 -33 0 -40 -3 -40 -20 0 -19 -7 -20 -160 -20 l-160 0 0 40 0
40 -40 0 c-33 0 -40 -3 -40 -20 0 -17 -7 -20 -40 -20 -33 0 -40 -3 -40 -20 0
-19 -7 -20 -100 -20 l-100 0 0 40 c0 33 3 40 20 40 17 0 20 7 20 40 0 33 -3
40 -20 40 -13 0 -20 7 -20 20 0 13 -7 20 -20 20 -13 0 -20 7 -20 20 0 13 -7
20 -20 20 -17 0 -20 7 -20 40 0 33 -3 40 -20 40 -13 0 -20 7 -20 20 0 18 -7
20 -60 20 -53 0 -60 -2 -60 -20 0 -13 -7 -20 -20 -20 -13 0 -20 -7 -20 -20 0
-18 -7 -20 -60 -20 l-60 0 0 80 0 80 60 0 c53 0 60 2 60 20 0 18 -7 20 -80 20
-73 0 -80 2 -80 20 0 13 7 20 20 20 13 0 20 7 20 20 0 13 7 20 20 20 13 0 20
7 20 20 0 17 -7 20 -40 20 -33 0 -40 -3 -40 -20 0 -18 -7 -20 -80 -20 -73 0
-80 -2 -80 -20 0 -17 -7 -20 -40 -20 -33 0 -40 3 -40 20 0 19 -7 20 -100 20
-93 0 -100 1 -100 20 0 13 -7 20 -20 20 -17 0 -20 7 -20 40 0 33 -3 40 -20 40
-18 0 -20 -7 -20 -60 l0 -60 -40 0 c-33 0 -40 3 -40 20 0 13 -7 20 -20 20 -17
0 -20 7 -20 40 l0 40 40 0 c33 0 40 3 40 20 0 13 -7 20 -20 20 -13 0 -20 7
-20 20 0 13 -7 20 -20 20 -18 0 -20 7 -20 60 0 53 2 60 20 60 13 0 20 7 20 20
0 13 7 20 20 20 13 0 20 7 20 20 0 13 7 20 20 20 13 0 20 7 20 20 0 17 7 20
40 20 33 0 40 -3 40 -20z m-240 -80 c0 -13 -7 -20 -20 -20 -13 0 -20 -7 -20
-20 0 -17 -7 -20 -40 -20 -33 0 -40 -3 -40 -20 0 -13 -7 -20 -20 -20 -13 0
-20 -7 -20 -20 0 -17 -7 -20 -40 -20 -33 0 -40 3 -40 20 0 13 7 20 20 20 13 0
20 7 20 20 0 13 7 20 20 20 13 0 20 7 20 20 0 17 7 20 40 20 33 0 40 3 40 20
0 17 7 20 40 20 33 0 40 -3 40 -20z m10560 -1080 c0 -17 7 -20 40 -20 33 0 40
-3 40 -20 0 -17 7 -20 40 -20 33 0 40 -3 40 -20 0 -17 7 -20 40 -20 33 0 40
-3 40 -20 0 -13 7 -20 20 -20 17 0 20 -7 20 -40 0 -33 3 -40 20 -40 13 0 20
-7 20 -20 0 -13 7 -20 20 -20 13 0 20 -7 20 -20 0 -13 7 -20 20 -20 13 0 20
-7 20 -20 0 -13 7 -20 20 -20 18 0 20 -7 20 -60 l0 -60 -40 0 c-33 0 -40 -3
-40 -20 0 -13 7 -20 20 -20 13 0 20 -7 20 -20 0 -13 7 -20 20 -20 13 0 20 -7
20 -20 0 -18 -7 -20 -60 -20 -53 0 -60 2 -60 20 0 13 -7 20 -20 20 -13 0 -20
7 -20 20 0 17 -7 20 -40 20 l-40 0 0 60 c0 53 2 60 20 60 17 0 20 7 20 40 l0
40 -60 0 c-53 0 -60 2 -60 20 0 17 -7 20 -40 20 -33 0 -40 3 -40 20 0 13 -7
20 -20 20 -17 0 -20 7 -20 40 0 33 -3 40 -20 40 -17 0 -20 7 -20 40 l0 40 -40
0 -40 0 0 40 0 40 60 0 c53 0 60 -2 60 -20z m-11840 -160 c0 -13 7 -20 20 -20
13 0 20 -7 20 -20 0 -13 7 -20 20 -20 17 0 20 -7 20 -40 l0 -40 -80 0 -80 0 0
40 c0 33 3 40 20 40 17 0 20 7 20 40 0 33 3 40 20 40 13 0 20 -7 20 -20z m280
0 c0 -18 7 -20 80 -20 73 0 80 -2 80 -20 0 -13 7 -20 20 -20 13 0 20 -7 20
-20 0 -17 7 -20 40 -20 33 0 40 -3 40 -20 0 -13 7 -20 20 -20 13 0 20 -7 20
-20 0 -17 7 -20 40 -20 l40 0 0 -40 0 -40 80 0 c73 0 80 2 80 20 0 17 -7 20
-40 20 -33 0 -40 3 -40 20 0 13 -7 20 -20 20 -18 0 -20 7 -20 60 l0 60 40 0
c33 0 40 -3 40 -20 0 -18 7 -20 60 -20 53 0 60 -2 60 -20 0 -13 7 -20 20 -20
13 0 20 -7 20 -20 0 -13 7 -20 20 -20 13 0 20 -7 20 -20 0 -17 7 -20 40 -20
33 0 40 -3 40 -20 0 -18 7 -20 60 -20 53 0 60 -2 60 -20 0 -19 7 -20 120 -20
113 0 120 -1 120 -20 0 -20 -7 -20 -520 -20 -513 0 -520 0 -520 20 0 13 -7 20
-20 20 -13 0 -20 7 -20 20 0 13 -7 20 -20 20 -13 0 -20 7 -20 20 0 18 -7 20
-80 20 l-80 0 0 60 c0 53 2 60 20 60 18 0 20 7 20 60 l0 60 40 0 c33 0 40 -3
40 -20z m11240 -420 c0 -33 -3 -40 -20 -40 -17 0 -20 -7 -20 -40 0 -33 -3 -40
-20 -40 -17 0 -20 -7 -20 -40 l0 -40 -40 0 c-33 0 -40 3 -40 20 0 13 7 20 20
20 17 0 20 7 20 40 0 33 3 40 20 40 17 0 20 7 20 40 0 33 3 40 20 40 13 0 20
7 20 20 0 13 7 20 20 20 17 0 20 -7 20 -40z m-10480 -60 c0 -17 7 -20 40 -20
33 0 40 -3 40 -20 0 -17 7 -20 40 -20 33 0 40 -3 40 -20 0 -19 -7 -20 -140
-20 -133 0 -140 1 -140 20 0 13 7 20 20 20 17 0 20 7 20 40 l0 40 40 0 c33 0
40 -3 40 -20z m9520 -40 c0 -13 7 -20 20 -20 13 0 20 -7 20 -20 0 -13 7 -20
20 -20 13 0 20 -7 20 -20 0 -13 7 -20 20 -20 18 0 20 -7 20 -60 0 -53 2 -60
20 -60 13 0 20 -7 20 -20 0 -17 7 -20 40 -20 33 0 40 -3 40 -20 0 -13 7 -20
20 -20 13 0 20 -7 20 -20 0 -18 -7 -20 -60 -20 -53 0 -60 2 -60 20 0 13 -7 20
-20 20 -17 0 -20 7 -20 40 0 33 -3 40 -20 40 -13 0 -20 7 -20 20 0 13 -7 20
-20 20 -13 0 -20 7 -20 20 0 17 -7 20 -40 20 l-40 0 0 40 c0 33 -3 40 -20 40
-13 0 -20 7 -20 20 0 13 -7 20 -20 20 -13 0 -20 7 -20 20 0 18 7 20 60 20 53
0 60 -2 60 -20z m-8760 -80 c0 -17 -7 -20 -40 -20 -33 0 -40 3 -40 20 0 17 7
20 40 20 33 0 40 -3 40 -20z m120 -20 c0 -33 3 -40 20 -40 13 0 20 -7 20 -20
0 -13 -7 -20 -20 -20 -19 0 -20 -7 -20 -180 l0 -180 26 0 c17 0 23 -4 18 -12
-6 -10 -5 -10 7 -1 8 6 45 12 82 12 60 0 67 -2 67 -20 0 -12 7 -19 20 -19 18
0 20 7 20 79 l0 79 100 0 100 0 -1 -159 c0 -150 -2 -159 -20 -159 -18 0 -19
-10 -19 -258 0 -193 -3 -261 -12 -271 -10 -11 -10 -13 0 -7 7 4 12 1 12 -8 0
-12 -10 -16 -40 -16 l-40 0 0 -80 c0 -73 -2 -80 -20 -80 -14 0 -20 -7 -21 -22
-4 -92 -4 -93 -24 -95 -11 -2 -14 0 -8 3 9 4 10 11 3 23 -6 13 -17 16 -41 13
-38 -6 -48 8 -50 68 -1 25 -3 37 -6 28 -2 -10 -10 -18 -17 -18 -8 0 -13 8 -13
18 0 9 -1 81 -2 160 -1 135 -2 142 -21 142 -13 0 -20 -7 -20 -20 0 -13 -7 -20
-20 -20 -13 0 -20 7 -20 20 0 13 -7 20 -20 20 -17 0 -20 -7 -20 -44 0 -54 -8
-76 -26 -76 -8 0 -14 -9 -14 -20 0 -18 -7 -20 -80 -20 -73 0 -80 2 -80 20 0
18 -7 20 -80 20 l-80 0 -1 78 c0 42 -4 86 -9 97 -7 17 -9 17 -9 3 -1 -10 -5
-18 -11 -18 -5 0 -10 -18 -10 -40 0 -33 -3 -40 -20 -40 -17 0 -20 7 -20 40 0
33 -3 40 -20 40 -11 0 -20 7 -20 15 0 8 7 15 17 15 9 0 13 3 10 7 -4 3 -27 5
-51 5 -49 -2 -56 8 -56 81 0 30 -4 37 -20 37 -20 0 -20 7 -20 338 l0 339 100
1 100 2 0 -40 c0 -33 3 -40 20 -40 18 0 20 -7 20 -80 l0 -80 80 0 c47 0 80 4
80 10 0 6 8 10 18 10 14 0 15 -2 2 -10 -9 -6 -10 -10 -3 -10 18 0 27 21 12 30
-7 5 -17 6 -21 4 -4 -3 -8 42 -8 100 0 99 -1 106 -20 106 -13 0 -20 7 -20 20
0 17 7 20 41 20 38 0 41 -2 37 -23 -4 -20 -1 -23 19 -19 18 3 23 0 23 -17 0
-18 6 -21 40 -21 33 0 40 3 40 20 0 14 -7 20 -21 20 -19 0 -21 4 -16 40 l5 40
-64 0 c-57 0 -64 2 -64 20 0 16 8 19 63 22 l62 3 -3 38 -4 37 41 0 41 0 0 -40z
m8000 0 c0 -33 3 -40 20 -40 13 0 20 -7 20 -20 0 -13 7 -20 20 -20 13 0 20 -7
20 -20 0 -18 7 -20 80 -20 73 0 80 2 80 20 0 18 7 20 60 20 l60 0 0 -40 c0
-33 3 -40 20 -40 13 0 20 -7 20 -20 0 -13 7 -20 20 -20 18 0 20 -7 20 -80 0
-73 2 -80 20 -80 13 0 20 -7 20 -20 0 -13 7 -20 20 -20 13 0 20 -7 20 -20 0
-13 7 -20 20 -20 17 0 20 -7 20 -40 0 -33 -3 -40 -20 -40 -13 0 -20 7 -20 20
0 13 -7 20 -20 20 -13 0 -20 7 -20 20 0 13 -7 20 -20 20 -13 0 -20 7 -20 20 0
17 -7 20 -40 20 -33 0 -40 3 -40 20 0 13 7 20 20 20 17 0 20 7 20 40 l0 40
-40 0 c-33 0 -40 3 -40 20 0 13 -7 20 -20 20 -13 0 -20 7 -20 20 0 13 -7 20
-20 20 -17 0 -20 -7 -20 -40 l0 -40 -40 0 c-33 0 -40 3 -40 20 0 13 -7 20 -20
20 -13 0 -20 7 -20 20 0 13 -7 20 -20 20 -13 0 -20 7 -20 20 0 13 -7 20 -20
20 -13 0 -20 7 -20 20 0 13 -7 20 -20 20 -13 0 -20 7 -20 20 0 13 -7 20 -20
20 -13 0 -20 7 -20 20 0 18 -7 20 -60 20 -53 0 -60 2 -60 20 0 13 7 20 20 20
13 0 20 7 20 20 0 18 7 20 60 20 l60 0 0 -40z m1040 -140 c0 -13 7 -20 20 -20
13 0 20 -7 20 -20 0 -17 -7 -20 -40 -20 -33 0 -40 3 -40 20 0 17 -7 20 -40 20
-33 0 -40 3 -40 20 0 18 7 20 60 20 53 0 60 -2 60 -20z m-9680 -40 c0 -13 -7
-20 -20 -20 -13 0 -20 7 -20 20 0 13 7 20 20 20 13 0 20 -7 20 -20z m-160 -40
c0 -13 7 -20 20 -20 13 0 20 7 20 20 0 13 7 20 20 20 17 0 20 -7 20 -40 l0
-40 -60 0 -60 0 0 40 c0 33 3 40 20 40 13 0 20 -7 20 -20z m-440 -120 c0 -13
7 -20 20 -20 13 0 20 7 20 20 0 13 7 20 20 20 13 0 20 -7 20 -20 0 -13 7 -20
20 -20 13 0 20 7 20 20 0 13 7 20 20 20 18 0 20 -7 20 -60 0 -41 4 -60 13 -61
6 0 42 -1 80 -1 59 0 67 -2 67 -19 0 -12 7 -19 20 -19 19 0 20 -7 20 -220 l0
-220 -40 0 -40 0 0 -40 0 -40 -120 0 c-113 0 -120 -1 -120 -20 0 -13 -7 -20
-20 -20 -18 0 -20 -7 -20 -60 0 -53 -2 -60 -20 -60 -20 0 -20 7 -20 420 0 413
0 420 20 420 13 0 20 -7 20 -20z m6040 -80 c0 -18 7 -20 60 -20 53 0 60 2 60
20 0 19 7 20 140 20 133 0 140 -1 140 -20 0 -17 7 -20 40 -20 33 0 40 -3 40
-20 0 -13 7 -20 20 -20 13 0 20 -7 20 -20 0 -13 7 -20 20 -20 13 0 20 -7 20
-20 0 -13 7 -20 20 -20 17 0 20 -7 20 -40 l0 -40 40 0 c33 0 40 3 40 20 0 17
7 20 40 20 33 0 40 -3 40 -20 0 -18 7 -20 60 -20 53 0 60 -2 60 -20 0 -18 7
-20 60 -20 53 0 60 -2 60 -20 0 -19 7 -20 260 -20 253 0 260 -1 260 -20 0 -20
-7 -20 -460 -20 -453 0 -460 0 -460 20 0 13 -7 20 -20 20 -13 0 -20 7 -20 20
0 19 -7 20 -100 20 -93 0 -100 1 -100 20 0 13 -7 20 -20 20 -13 0 -20 7 -20
20 0 13 -7 20 -20 20 -13 0 -20 7 -20 20 0 13 -7 20 -20 20 -13 0 -20 7 -20
20 0 17 -7 20 -40 20 -33 0 -40 -3 -40 -20 0 -13 7 -20 20 -20 13 0 20 -7 20
-20 0 -17 -7 -20 -40 -20 -33 0 -40 -3 -40 -20 0 -19 -7 -20 -120 -20 -113 0
-120 1 -120 20 0 18 7 20 80 20 l80 0 0 40 c0 33 3 40 20 40 13 0 20 7 20 20
0 18 -7 20 -80 20 -73 0 -80 2 -80 20 0 18 -7 20 -60 20 -53 0 -60 2 -60 20 0
19 7 20 100 20 93 0 100 -1 100 -20z m-6360 -24 c0 -12 -13 -36 -20 -36 -4 0
-10 9 -13 20 -4 15 0 20 14 20 10 0 19 -2 19 -4z m80 -16 c0 -13 7 -20 20 -20
13 0 20 7 20 20 0 13 7 20 20 20 13 0 20 -7 20 -20 0 -11 6 -20 14 -20 16 0
26 -32 19 -60 -5 -18 -35 -30 -32 -12 5 27 -4 32 -61 32 l-60 0 0 40 c0 33 3
40 20 40 13 0 20 -7 20 -20z m-367 -226 c9 -9 -4 -34 -17 -34 -6 0 -12 9 -13
20 -2 19 16 27 30 14z m87 -14 c0 -13 7 -20 20 -20 13 0 20 7 20 20 0 13 7 20
20 20 17 0 20 -7 20 -40 l0 -40 -60 0 -60 0 0 40 c0 33 3 40 20 40 13 0 20 -7
20 -20z m2856 3 c-5 -15 -4 -15 9 1 13 18 15 18 15 3 0 -18 -26 -34 -37 -24
-7 7 4 37 13 37 3 0 3 -8 0 -17z m102 -6 c3 -12 -3 -17 -20 -16 -17 1 -18 3
-5 6 9 2 17 8 17 13 0 5 -7 6 -17 3 -11 -4 -14 -3 -9 6 10 16 30 9 34 -12z
m362 -118 c0 -105 -3 -139 -12 -139 -9 0 -8 -4 2 -10 13 -9 13 -10 0 -10 -9 0
-11 -3 -5 -8 6 -4 12 -17 12 -30 2 -18 -2 -22 -18 -17 -18 6 -19 0 -19 -139 0
-139 1 -146 20 -146 13 0 20 -7 20 -20 0 -13 7 -20 20 -20 13 0 20 7 20 20 0
13 7 20 20 20 19 0 20 -7 20 -180 0 -173 -1 -180 -20 -180 -13 0 -20 -7 -20
-20 0 -17 -7 -20 -40 -20 l-40 0 0 145 c0 138 -1 145 -20 145 -18 0 -20 -7
-20 -65 0 -58 -2 -65 -20 -65 -13 0 -20 7 -20 20 0 13 -7 20 -20 20 -13 0 -20
7 -20 20 0 17 -7 20 -40 20 l-40 0 -1 -42 c-2 -102 -4 -113 -20 -116 -10 -2
-15 4 -15 17 1 11 -2 20 -6 21 -5 0 -33 0 -63 0 -48 0 -55 -2 -55 -20 0 -11 6
-20 14 -20 16 0 26 -21 26 -56 0 -17 -6 -24 -20 -24 -17 0 -20 -7 -20 -40 l0
-40 -60 0 -59 0 -3 107 c-2 84 -6 107 -18 110 -13 4 -13 3 0 -6 13 -9 13 -11
-2 -11 -11 0 -18 -8 -18 -20 0 -18 -7 -20 -80 -20 -73 0 -80 2 -80 20 0 13 -7
20 -20 20 -20 0 -20 7 -20 380 l0 380 26 0 c17 0 23 -4 18 -12 -6 -10 -4 -10
7 0 7 6 26 12 41 12 21 0 28 -5 28 -20 0 -13 7 -20 20 -20 13 0 20 7 20 20 0
13 7 20 20 20 13 0 20 -7 20 -20 0 -13 7 -20 20 -20 13 0 20 7 20 20 0 13 7
20 20 20 19 0 20 -7 20 -120 0 -113 1 -120 20 -120 19 0 20 7 20 120 0 113 1
120 20 120 13 0 20 -7 20 -20 0 -13 7 -20 20 -20 13 0 20 7 20 20 0 13 7 20
20 20 13 0 20 -7 20 -20 0 -13 7 -20 20 -20 19 0 20 7 20 99 l0 99 140 0 140
-1 0 -138z m-880 -300 c-1 -321 -4 -399 -15 -399 -7 0 -15 9 -18 20 -3 12 -14
20 -26 20 -14 0 -21 6 -21 20 0 17 -7 20 -40 20 l-40 0 0 80 c0 73 -2 80 -19
80 -19 0 -20 9 -21 279 l0 280 100 -1 101 0 -1 -399z m4640 381 c0 -13 7 -20
20 -20 13 0 20 -7 20 -20 0 -17 7 -20 40 -20 33 0 40 -3 40 -20 0 -19 7 -20
100 -20 93 0 100 -1 100 -20 0 -18 7 -20 60 -20 53 0 60 -2 60 -20 0 -13 7
-20 20 -20 13 0 20 -7 20 -20 0 -17 7 -20 40 -20 33 0 40 -3 40 -20 0 -20 7
-20 540 -20 533 0 540 0 540 -20 0 -20 -7 -20 -760 -20 -753 0 -760 0 -760 20
0 19 -7 20 -180 20 -173 0 -180 1 -180 20 0 13 7 20 20 20 17 0 20 7 20 40 0
33 3 40 20 40 13 0 20 7 20 20 0 19 -7 20 -100 20 -93 0 -100 1 -100 20 0 13
7 20 20 20 13 0 20 7 20 20 0 13 7 20 20 20 13 0 20 7 20 20 0 19 7 20 140 20
133 0 140 -1 140 -20z m3080 -80 c0 -13 7 -20 20 -20 13 0 20 -7 20 -20 0 -17
7 -20 40 -20 l40 0 0 -40 0 -40 -40 0 c-33 0 -40 3 -40 20 0 13 -7 20 -20 20
-13 0 -20 7 -20 20 0 17 -7 20 -40 20 -33 0 -40 3 -40 20 0 13 -7 20 -20 20
-13 0 -20 7 -20 20 0 18 7 20 60 20 53 0 60 -2 60 -20z m-7644 -42 c3 -25 -23
-22 -29 3 -4 15 -1 19 10 17 9 -2 17 -11 19 -20z m964 -320 c0 -11 7 -18 20
-18 13 0 20 7 20 20 0 13 7 20 20 20 13 0 20 -7 20 -20 0 -13 7 -20 20 -20 13
0 20 7 20 20 0 13 7 20 20 20 20 0 20 -5 20 -255 -1 -190 -4 -255 -13 -256 -8
0 -7 -3 2 -6 11 -5 11 -7 0 -14 -10 -6 -11 -9 -1 -9 7 0 12 -13 12 -30 l0 -30
-80 0 -80 0 0 260 c0 215 -2 260 -14 260 -13 0 -26 29 -26 62 0 11 7 16 20 15
12 -1 20 -8 20 -19z m5800 -118 c0 -13 -7 -20 -20 -20 -13 0 -20 -7 -20 -20 0
-13 -7 -20 -20 -20 -17 0 -20 7 -20 40 l0 40 40 0 c33 0 40 -3 40 -20z m-9772
-229 c9 -5 12 -21 10 -42 -3 -30 -1 -34 20 -31 12 2 22 0 21 -5 -4 -22 3 -33
21 -33 17 0 20 -7 20 -40 0 -33 3 -40 20 -40 18 0 20 -7 20 -60 0 -48 -3 -60
-16 -60 -9 0 -18 9 -21 20 -4 16 -14 20 -44 20 -32 0 -39 3 -39 20 0 13 7 20
20 20 17 0 20 7 20 40 0 33 -3 40 -20 40 -13 0 -20 7 -20 20 0 17 -7 20 -40
20 l-40 0 0 53 c0 30 3 57 7 60 9 10 45 8 61 -2z m-148 -46 c0 -8 -6 -15 -12
-15 -10 0 -9 -3 1 -9 7 -5 21 -7 30 -4 14 4 18 -3 19 -36 2 -35 -1 -41 -18
-41 -13 0 -20 7 -20 20 0 13 -7 20 -20 20 -18 0 -20 6 -18 40 1 31 6 40 20 40
10 0 18 -7 18 -15z m9760 -165 c0 -13 -7 -20 -20 -20 -13 0 -20 -7 -20 -20 0
-13 -7 -20 -20 -20 -13 0 -20 -7 -20 -20 0 -17 -7 -20 -40 -20 -33 0 -40 3
-40 20 0 13 7 20 20 20 17 0 20 7 20 40 l0 40 60 0 c53 0 60 -2 60 -20z m-934
-145 c-11 -11 -16 -12 -19 -2 -3 6 -6 3 -6 -9 -1 -20 9 -22 72 -15 4 1 7 19 7
40 0 34 3 39 20 36 16 -3 20 2 20 26 0 16 -5 29 -12 29 -20 0 14 20 35 20 14
0 17 -9 17 -45 0 -25 -3 -44 -7 -44 -21 3 -33 -2 -33 -16 0 -8 9 -15 20 -15
11 0 20 -6 20 -14 0 -22 24 -26 156 -26 l124 0 0 -40 0 -40 -40 0 c-33 0 -40
3 -40 20 0 18 -7 20 -80 20 -73 0 -80 -2 -80 -20 0 -19 -7 -20 -220 -20 l-220
0 0 40 0 40 -40 0 c-33 0 -40 -3 -40 -20 0 -13 -7 -20 -20 -20 -13 0 -20 -7
-20 -20 0 -17 -7 -20 -40 -20 l-40 0 0 40 0 40 -60 0 c-53 0 -60 -2 -60 -20 0
-13 -7 -20 -20 -20 -13 0 -20 -7 -20 -20 0 -17 -7 -20 -40 -20 -33 0 -40 3
-40 20 0 19 -7 20 -200 20 -193 0 -200 -1 -200 -20 0 -19 -7 -20 -200 -20
-193 0 -200 1 -200 20 0 17 -7 20 -40 20 -33 0 -40 3 -40 20 0 17 7 20 40 20
33 0 40 3 40 20 0 13 7 20 20 20 13 0 20 7 20 20 0 12 7 20 18 20 9 0 27 3 40
6 20 6 22 3 22 -40 0 -39 3 -46 20 -46 13 0 20 7 20 20 0 13 7 20 20 20 13 0
20 7 20 20 0 18 7 20 58 20 31 0 67 3 80 6 20 6 22 3 22 -38 0 -35 4 -45 18
-46 34 -2 62 9 62 23 0 12 14 15 60 15 53 0 60 -2 60 -20 0 -19 7 -20 160 -20
153 0 160 1 160 20 0 19 7 20 200 20 193 0 200 -1 200 -20 0 -17 7 -20 39 -20
33 0 40 4 43 23 2 15 9 21 21 19 12 -2 17 4 17 22 0 19 4 24 20 21 17 -3 20 2
20 36 0 38 1 39 35 39 20 0 36 5 37 13 1 6 3 -18 5 -56 3 -50 0 -71 -11 -82z
m-2339 93 c-3 -7 -5 -2 -5 12 0 14 2 19 5 13 2 -7 2 -19 0 -25z m2070 0 c-3
-8 -6 -5 -6 6 -1 11 2 17 5 13 3 -3 4 -12 1 -19z m-7957 -28 c0 -11 -6 -20
-12 -21 -10 0 -10 -2 0 -6 6 -2 12 -11 12 -19 0 -10 -12 -14 -39 -14 -34 0
-40 3 -38 20 1 15 7 20 22 18 16 -2 19 2 17 20 -3 17 2 22 17 22 14 0 21 -6
21 -20z m6906 2 c-10 -2 -22 0 -28 6 -6 6 0 7 19 4 21 -5 23 -7 9 -10z m1 -18
c-3 -3 -12 -4 -19 -1 -8 3 -5 6 6 6 11 1 17 -2 13 -5z m190 -36 c-3 -8 -6 -5
-6 6 -1 11 2 17 5 13 3 -3 4 -12 1 -19z m-1651 -8 c107 0 114 -1 114 -20 0
-13 -7 -20 -20 -20 -13 0 -20 -7 -20 -20 0 -13 -7 -20 -20 -20 -13 0 -20 7
-20 20 0 19 -7 20 -120 20 -112 0 -120 1 -120 19 0 15 8 21 33 24 17 2 38 2
45 0 8 -1 65 -3 128 -3z m434 -24 c0 -23 -2 -24 -60 -19 -55 5 -60 4 -60 -14
0 -14 -8 -22 -22 -25 -46 -8 -58 1 -58 43 l0 39 100 0 c99 0 100 0 100 -24z
m640 -31 c0 -18 -5 -25 -20 -25 -13 0 -20 -7 -20 -20 0 -13 -7 -20 -20 -20
-17 0 -20 7 -20 39 0 39 1 40 38 44 20 2 38 4 40 5 1 1 2 -9 2 -23z m-6480 -5
c0 -13 7 -20 20 -20 17 0 20 -7 20 -40 0 -33 -3 -40 -20 -40 -14 0 -20 7 -20
24 0 19 -4 23 -20 19 -18 -5 -20 0 -20 36 0 34 3 41 20 41 13 0 20 -7 20 -20z
m8840 0 c0 -13 -7 -20 -20 -20 -13 0 -20 -7 -20 -20 0 -13 -7 -20 -20 -20 -17
0 -20 7 -20 40 l0 40 40 0 c33 0 40 -3 40 -20z m200 1 c0 -11 -9 -20 -22 -23
-37 -6 -58 2 -58 23 0 16 7 19 40 19 33 0 40 -4 40 -19z m-2763 -47 c-3 -3
-12 -4 -19 -1 -8 3 -5 6 6 6 11 1 17 -2 13 -5z m2740 0 c-3 -3 -12 -4 -19 -1
-8 3 -5 6 6 6 11 1 17 -2 13 -5z m23 -34 c0 -17 -7 -20 -40 -20 -33 0 -40 -3
-40 -20 0 -17 -7 -20 -40 -20 -33 0 -40 -3 -40 -20 0 -13 -7 -20 -20 -20 -13
0 -20 -7 -20 -20 0 -17 -7 -20 -40 -20 -33 0 -40 3 -40 20 0 13 7 20 20 20 13
0 20 7 20 20 0 13 7 20 20 20 13 0 20 7 20 20 0 17 7 20 40 20 33 0 40 3 40
20 0 18 7 20 60 20 53 0 60 -2 60 -20z"/>
<path d="M5680 4260 c0 -13 7 -20 20 -20 13 0 20 7 20 20 0 13 -7 20 -20 20
-13 0 -20 -7 -20 -20z"/>
<path d="M7640 4240 c0 -33 3 -40 20 -40 13 0 20 -7 20 -20 0 -17 7 -20 40
-20 33 0 40 3 40 20 0 13 -7 20 -20 20 -13 0 -20 7 -20 20 0 13 -7 20 -20 20
-13 0 -20 7 -20 20 0 13 -7 20 -20 20 -17 0 -20 -7 -20 -40z"/>
<path d="M5760 4220 c0 -13 7 -20 20 -20 13 0 20 -7 20 -20 0 -17 7 -20 40
-20 l40 0 0 40 0 40 -60 0 c-53 0 -60 -2 -60 -20z"/>
<path d="M6960 4220 c0 -13 7 -20 20 -20 13 0 20 -7 20 -20 0 -13 7 -20 20
-20 13 0 20 -7 20 -20 0 -17 7 -20 40 -20 33 0 40 -3 40 -20 0 -19 7 -20 100
-20 l100 0 0 60 c0 53 -2 60 -20 60 -13 0 -20 7 -20 20 0 19 -7 20 -160 20
-153 0 -160 -1 -160 -20z"/>
<path d="M6080 4140 c0 -19 -7 -20 -100 -20 l-100 0 0 -40 c0 -33 3 -40 20
-40 13 0 20 -7 20 -20 0 -18 7 -20 60 -20 l60 0 0 40 0 40 40 0 c33 0 40 -3
40 -20 0 -17 7 -20 40 -20 33 0 40 3 40 20 0 13 -7 20 -20 20 -17 0 -20 7 -20
40 l0 40 -40 0 c-33 0 -40 -3 -40 -20z"/>
<path d="M7640 3940 c0 -18 -7 -20 -60 -20 -53 0 -60 -2 -60 -20 0 -18 7 -20
60 -20 53 0 60 -2 60 -20 0 -18 7 -20 80 -20 73 0 80 2 80 20 0 13 7 20 20 20
13 0 20 7 20 20 0 17 7 20 40 20 33 0 40 3 40 20 0 19 -7 20 -140 20 -133 0
-140 -1 -140 -20z"/>
<path d="M4287 3964 c-4 -4 -7 -22 -7 -40 0 -18 -6 -35 -12 -37 -7 -3 2 -6 20
-6 33 -1 33 -1 30 41 -3 39 -16 57 -31 42z"/>
<path d="M4205 3909 c-4 -6 -5 -12 -2 -15 2 -3 7 2 10 11 7 17 1 20 -8 4z"/>
<path d="M4473 3775 c0 -7 6 -11 14 -8 7 3 13 6 13 8 0 2 -6 5 -13 8 -8 3 -14
-1 -14 -8z"/>
<path d="M4210 3770 c0 -5 5 -10 11 -10 5 0 7 5 4 10 -3 6 -8 10 -11 10 -2 0
-4 -4 -4 -10z"/>
<path d="M4772 3716 c7 -8 15 -12 17 -11 5 6 -10 25 -20 25 -5 0 -4 -6 3 -14z"/>
<path d="M4240 3600 c0 -33 3 -40 20 -40 11 0 20 6 20 14 0 8 10 17 23 19 l22
4 -22 2 c-16 1 -23 7 -23 21 0 13 -7 20 -20 20 -17 0 -20 -7 -20 -40z"/>
<path d="M4298 3613 c7 -3 16 -2 19 1 4 3 -2 6 -13 5 -11 0 -14 -3 -6 -6z"/>
<path d="M4240 3460 l0 -60 40 0 40 0 0 46 c0 32 -3 43 -12 38 -8 -5 -9 -1 -5
12 7 18 6 18 -9 -1 -16 -20 -16 -20 -11 3 4 18 1 22 -19 22 -23 0 -24 -3 -24
-60z"/>
<path d="M4138 3486 c-12 -8 -18 -27 -18 -50 0 -30 4 -36 20 -36 19 0 21 6 19
50 -2 28 -3 50 -3 50 -1 0 -9 -7 -18 -14z"/>
<path d="M4406 3483 c-3 -4 -6 -24 -6 -45 0 -31 3 -38 20 -38 17 0 20 7 20 39
0 36 -18 59 -34 44z"/>
<path d="M3833 3385 c0 -8 4 -12 9 -9 5 3 6 10 3 15 -9 13 -12 11 -12 -6z"/>
<path d="M3898 3333 c7 -3 16 -2 19 1 4 3 -2 6 -13 5 -11 0 -14 -3 -6 -6z"/>
<path d="M4541 3254 c0 -11 3 -14 6 -6 3 7 2 16 -1 19 -3 4 -6 -2 -5 -13z"/>
<path d="M4241 3253 c1 -5 0 -11 -1 -15 -1 -5 -3 -14 -4 -20 -1 -7 -9 -12 -19
-10 -12 2 -17 -4 -17 -23 0 -24 2 -25 54 -24 47 2 52 4 40 16 -8 8 -14 24 -14
36 0 12 -9 28 -20 35 -11 7 -20 9 -19 5z"/>
<path d="M5470 2895 c0 -8 -7 -15 -15 -15 -14 0 -17 -17 -17 -115 0 -78 2 -85
22 -85 19 0 20 7 20 115 0 63 -2 115 -5 115 -3 0 -5 -7 -5 -15z"/>
</g>
</svg>
