<?xml version="1.0" standalone="no"?>
<!DOCTYPE svg PUBLIC "-//W3C//DTD SVG 20010904//EN"
 "http://www.w3.org/TR/2001/REC-SVG-20010904/DTD/svg10.dtd">
<svg version="1.0" xmlns="http://www.w3.org/2000/svg"
 width="1480.000000pt" height="986.000000pt" viewBox="0 0 1480.000000 986.000000"
 preserveAspectRatio="xMidYMid meet">

<g transform="translate(0.000000,986.000000) scale(0.100000,-0.100000)"
fill="#000000" stroke="none">
<path d="M10518 9143 c23 -2 61 -2 85 0 23 2 4 4 -43 4 -47 0 -66 -2 -42 -4z"/>
<path d="M10433 9133 c9 -2 23 -2 30 0 6 3 -1 5 -18 5 -16 0 -22 -2 -12 -5z"/>
<path d="M10663 9133 c9 -2 23 -2 30 0 6 3 -1 5 -18 5 -16 0 -22 -2 -12 -5z"/>
<path d="M10341 9119 c-18 -6 -31 -12 -29 -14 2 -2 26 2 53 10 28 7 41 13 30
13 -11 0 -35 -4 -54 -9z"/>
<path d="M10718 9123 c6 -2 18 -2 25 0 6 3 1 5 -13 5 -14 0 -19 -2 -12 -5z"/>
<path d="M10775 9110 c27 -12 43 -12 25 0 -8 5 -22 9 -30 9 -10 0 -8 -3 5 -9z"/>
<path d="M10214 9065 c-121 -61 -249 -181 -313 -295 -30 -54 -19 -51 13 4 69
118 202 237 329 296 34 16 57 29 51 30 -6 0 -42 -16 -80 -35z"/>
<path d="M10890 9063 c229 -118 367 -301 415 -551 14 -73 15 -74 10 -18 -12
133 -88 295 -192 407 -80 86 -205 171 -283 194 -14 3 9 -11 50 -32z"/>
<path d="M9862 8695 c-17 -37 -14 -45 4 -12 9 16 14 31 11 33 -2 2 -9 -7 -15
-21z"/>
<path d="M10495 8694 c-80 -19 -122 -60 -135 -136 l-7 -38 44 0 c40 0 45 3 54
29 12 35 69 66 102 55 41 -12 67 -45 67 -85 0 -53 -33 -89 -88 -96 l-42 -6 0
-103 0 -104 45 0 45 0 0 65 c0 64 0 64 36 81 92 44 128 173 74 262 -31 51
-133 90 -195 76z"/>
<path d="M9821 8574 c0 -11 3 -14 6 -6 3 7 2 16 -1 19 -3 4 -6 -2 -5 -13z"/>
<path d="M9812 8530 c0 -14 2 -19 5 -12 2 6 2 18 0 25 -3 6 -5 1 -5 -13z"/>
<path d="M9802 8450 c0 -19 2 -27 5 -17 2 9 2 25 0 35 -3 9 -5 1 -5 -18z"/>
<path d="M11323 8380 c0 -25 2 -35 4 -22 2 12 2 32 0 45 -2 12 -4 2 -4 -23z"/>
<path d="M9802 8305 c0 -16 2 -22 5 -12 2 9 2 23 0 30 -3 6 -5 -1 -5 -18z"/>
<path d="M11312 8290 c0 -19 2 -27 5 -17 2 9 2 25 0 35 -3 9 -5 1 -5 -18z"/>
<path d="M9811 8244 c0 -11 3 -14 6 -6 3 7 2 16 -1 19 -3 4 -6 -2 -5 -13z"/>
<path d="M11302 8230 c0 -14 2 -19 5 -12 2 6 2 18 0 25 -3 6 -5 1 -5 -13z"/>
<path d="M11277 8148 c-9 -29 -15 -54 -13 -56 2 -2 12 20 21 48 9 28 15 53 13
55 -2 3 -12 -19 -21 -47z"/>
<path d="M10523 8153 c-27 -4 -33 -9 -33 -28 0 -44 10 -55 51 -55 l39 0 0 45
c0 30 -4 44 -12 43 -7 0 -28 -3 -45 -5z"/>
<path d="M11215 8007 c-47 -82 -156 -198 -237 -252 -32 -21 -95 -53 -140 -71
-46 -19 -76 -34 -68 -34 29 0 170 68 233 113 82 59 166 150 218 238 23 38 40
71 38 73 -2 2 -22 -28 -44 -67z"/>
<path d="M8811 7999 c-102 -28 -135 -46 -231 -133 -98 -89 -156 -119 -260
-135 -191 -30 -276 -79 -299 -171 -19 -71 -20 -73 -39 -65 -48 18 -193 56
-275 72 -80 15 -157 18 -587 18 -473 0 -500 -1 -615 -23 -343 -65 -621 -213
-843 -447 -267 -283 -412 -624 -484 -1143 -21 -151 -22 -186 -20 -877 4 -1095
18 -1296 119 -1655 156 -559 521 -962 1022 -1129 186 -61 489 -100 661 -85 47
4 209 8 360 9 301 1 395 12 586 66 495 139 865 504 1041 1026 43 129 44 128
-44 139 -59 7 -148 -6 -206 -31 -30 -12 -37 -20 -31 -33 4 -9 9 -39 12 -65 3
-40 0 -53 -19 -73 -12 -13 -30 -24 -40 -24 -16 0 -16 -4 -2 -57 8 -32 15 -85
16 -117 0 -51 -3 -62 -24 -79 -19 -15 -34 -18 -76 -14 -45 5 -54 2 -74 -19
-40 -43 -101 -30 -142 31 -22 32 -26 34 -37 20 -8 -9 -27 -23 -43 -32 -17 -8
-68 -55 -115 -104 -142 -150 -289 -231 -477 -264 -213 -37 -355 -4 -724 167
-235 109 -318 139 -449 164 -149 28 -263 14 -414 -51 -30 -12 -20 11 10 25
164 76 350 78 566 6 56 -19 193 -77 306 -129 307 -142 392 -167 576 -167 232
0 414 80 587 258 68 71 94 104 68 88 -12 -8 -45 31 -72 85 l-24 46 -130 -52
c-143 -57 -244 -86 -379 -110 -160 -27 -149 -30 -430 114 -138 71 -435 222
-661 336 -515 261 -610 311 -660 345 -166 116 -271 335 -251 524 14 139 52
212 175 341 98 102 97 104 -31 85 -44 -6 -82 -9 -84 -7 -10 10 64 28 143 34
l84 6 209 214 c115 118 213 213 217 211 14 -6 503 -516 503 -524 0 -5 -24 -33
-54 -64 l-53 -55 -43 -188 c-23 -104 -40 -190 -38 -191 1 -2 250 -186 551
-410 451 -335 552 -406 570 -400 28 8 226 109 332 169 44 25 88 45 98 45 10 0
32 8 50 17 20 11 61 18 107 20 41 2 110 6 153 9 l78 6 48 -48 c26 -27 52 -57
58 -68 10 -18 12 -18 69 5 46 17 79 23 149 23 52 0 99 -4 111 -11 19 -11 22
-9 32 25 45 154 79 420 88 704 l7 196 81 32 c45 18 93 38 108 46 25 13 29 11
75 -26 112 -93 251 -105 338 -29 19 17 50 64 70 107 39 81 74 136 82 128 3 -3
-114 -241 -260 -531 l-266 -526 36 -257 c19 -141 38 -260 42 -263 3 -4 130 6
281 22 393 41 1479 149 1813 180 70 7 129 10 131 8 3 -2 9 -56 15 -119 46
-492 101 -1023 105 -1028 6 -5 222 15 681 63 72 7 258 25 415 40 157 15 290
28 296 30 7 2 6 46 -4 146 -7 79 -15 145 -16 146 -1 2 -34 -4 -72 -12 -227
-47 -476 -17 -689 84 -76 36 -160 91 -139 91 5 0 34 -14 64 -31 77 -43 172
-80 188 -74 7 2 10 0 7 -5 -3 -6 -4 -10 0 -10 3 0 41 -9 85 -21 146 -38 348
-42 502 -10 l54 12 -38 377 c-45 461 -45 460 -15 466 12 3 154 18 315 33 161
15 297 30 302 33 7 4 0 113 -20 311 -16 167 -31 319 -32 338 l-2 33 -71 -6
c-38 -4 -184 -18 -323 -32 -139 -14 -256 -23 -261 -20 -4 3 -11 40 -14 83 -12
145 -40 438 -43 441 -6 8 -42 -33 -37 -41 3 -6 1 -7 -5 -3 -12 7 -79 -30 -121
-68 l-25 -21 23 33 c13 18 40 42 62 53 25 12 37 24 33 32 -4 7 -4 9 1 5 4 -4
21 0 36 9 20 12 29 25 29 43 0 16 13 41 33 62 l33 36 70 -5 c122 -9 242 40
320 131 79 91 144 275 144 406 0 69 -18 84 -89 75 -180 -23 -323 -117 -395
-262 -38 -75 -49 -130 -50 -235 -1 -93 -2 -98 -30 -127 -38 -39 -46 -39 -46 3
0 19 -11 146 -25 282 -13 137 -47 481 -75 764 -27 283 -53 537 -56 565 l-7 50
-28 -34 c-15 -19 -25 -39 -22 -44 3 -6 1 -7 -6 -3 -7 5 -28 -7 -51 -28 -91
-82 -271 -146 -412 -146 -104 0 -192 21 -368 87 -80 30 -178 63 -219 74 -76
20 -88 25 -79 34 10 11 135 -24 275 -76 193 -72 256 -89 349 -96 190 -14 397
71 523 213 34 39 40 52 36 78 -3 17 -19 173 -36 346 -16 173 -36 382 -44 464
-8 82 -17 151 -19 154 -3 2 -195 -14 -428 -37 -233 -22 -554 -53 -713 -68
l-291 -27 -156 -305 -156 -306 -59 -6 -58 -6 53 -1 c28 -1 52 -4 52 -7 0 -3
-22 -50 -50 -105 -27 -55 -50 -104 -50 -109 0 -4 88 -150 196 -322 108 -173
209 -339 224 -369 112 -222 26 -519 -199 -684 -41 -31 -93 -47 -432 -140 -589
-160 -841 -227 -844 -224 -4 4 144 840 150 846 5 5 177 43 480 107 99 21 182
39 184 41 3 3 -296 741 -305 753 -2 2 -41 -9 -88 -24 -63 -20 -94 -26 -121
-21 -28 6 -35 4 -29 -5 12 -20 -124 -5 -172 19 -99 50 -148 150 -148 298 l0
92 -78 17 c-44 9 -81 15 -83 13 -1 -1 -10 -75 -19 -163 -51 -498 -105 -676
-250 -821 -74 -73 -141 -113 -231 -136 -27 -7 -53 -17 -56 -22 -4 -4 -10 -39
-13 -76 l-7 -67 -47 24 c-57 30 -129 27 -205 -7 l-48 -21 -91 52 c-116 67
-160 107 -194 175 -25 51 -26 60 -21 162 2 60 15 147 27 197 26 105 29 204 10
410 -19 208 1 255 144 337 165 94 188 121 211 244 21 106 22 110 57 150 42 48
93 71 201 95 161 34 220 63 254 123 8 14 17 17 35 13 38 -10 121 -94 158 -160
l33 -58 31 29 c17 16 54 44 81 62 28 18 52 35 54 36 8 6 -67 113 -125 178 -9
10 -34 53 -55 95 -67 135 -193 239 -334 276 -81 21 -213 18 -304 -6z m-997
-490 c-10 -16 -364 -189 -487 -237 -312 -122 -594 -158 -844 -106 -85 17 -169
47 -199 69 -16 12 -12 12 31 -1 171 -54 238 -65 385 -66 289 -2 535 69 930
266 165 83 197 95 184 75z m4526 -126 c0 -20 -202 -126 -305 -161 -124 -42
-385 -79 -385 -55 0 6 35 14 78 18 117 10 224 33 320 67 110 38 205 86 197 98
-3 5 0 8 7 5 7 -3 27 4 43 15 32 21 45 25 45 13z m-5125 -563 c48 -23 105 -61
143 -95 l63 -57 -46 -49 c-44 -47 -95 -138 -95 -169 0 -8 11 11 24 42 26 62
76 132 109 150 18 9 25 6 54 -28 48 -57 60 -90 40 -112 -35 -38 -49 -95 -49
-192 -1 -88 2 -101 34 -170 20 -41 47 -86 62 -100 24 -22 25 -25 9 -31 -17 -7
-17 -8 1 -8 10 -1 43 -15 72 -32 41 -23 54 -36 54 -54 l0 -24 -67 20 c-208 61
-292 63 -437 9 -100 -38 -293 -179 -557 -407 -53 -46 -99 -83 -103 -83 -3 0
-6 87 -6 193 0 189 12 370 30 476 6 30 9 56 7 57 -1 1 -33 -6 -70 -16 -98 -27
-264 -40 -372 -29 -134 14 -300 62 -383 112 -56 33 -29 30 62 -8 153 -63 239
-79 426 -80 130 0 182 4 245 19 44 11 84 20 89 20 5 1 20 41 32 89 61 229 158
388 302 497 76 56 197 112 227 104 11 -3 56 -23 100 -44z m4226 -450 c-8 -4
-35 -11 -60 -15 -25 -4 -68 -18 -95 -31 -27 -14 -56 -23 -65 -21 -26 5 112 66
170 75 57 9 72 6 50 -8z m29 -233 c0 -2 -10 -12 -22 -23 l-23 -19 19 23 c18
21 26 27 26 19z m-3309 -612 c47 -25 67 -29 169 -35 139 -7 167 -19 300 -119
102 -76 184 -121 223 -121 33 0 35 -4 26 -63 -32 -207 -103 -276 -275 -265
-54 4 -84 12 -130 37 -180 95 -383 399 -429 641 l-7 35 35 -40 c19 -22 59 -54
88 -70z m715 89 c57 -27 59 -33 44 -144 -8 -64 -18 -100 -25 -100 -18 0 -70
44 -160 136 l-80 81 55 21 c67 25 121 27 166 6z m2594 -714 c0 -5 20 -213 45
-461 24 -249 43 -454 41 -456 -6 -6 -838 -84 -843 -79 -3 3 37 85 90 183 52
98 159 300 237 448 79 149 150 276 158 283 9 6 27 12 41 12 33 0 172 46 197
65 22 17 34 19 34 5z m-755 -90 c10 -11 16 -20 13 -20 -3 0 -13 9 -23 20 -10
11 -16 20 -13 20 3 0 13 -9 23 -20z m1367 -129 c72 -76 211 -142 335 -159 100
-14 236 3 304 38 l24 12 -25 -25 c-36 -37 -166 -62 -269 -53 -138 13 -281 76
-373 164 -36 35 -47 52 -30 52 4 0 19 -13 34 -29z m598 -174 c0 -2 -12 -14
-27 -28 l-28 -24 24 28 c23 25 31 32 31 24z m-70 -70 c0 -2 -17 -19 -37 -38
l-38 -34 34 38 c33 34 41 42 41 34z m0 -40 c0 -2 -12 -14 -27 -28 l-28 -24 24
28 c23 25 31 32 31 24z m-80 -40 c0 -2 -12 -14 -27 -28 l-28 -24 24 28 c23 25
31 32 31 24z m593 -503 c185 -42 357 -145 480 -287 28 -31 47 -60 43 -64 -4
-4 -26 15 -49 42 -221 261 -592 374 -906 276 -47 -14 -58 -15 -54 -5 6 17 88
42 175 54 80 11 223 4 311 -16z m-2663 -104 c137 -17 288 -71 517 -187 359
-182 511 -233 692 -233 190 0 312 54 579 255 100 76 186 134 190 130 4 -4 -6
-18 -23 -31 -16 -14 -29 -29 -27 -35 1 -6 -2 -8 -7 -4 -6 3 -75 -43 -154 -103
-274 -207 -435 -262 -662 -228 -144 21 -279 72 -535 201 -236 118 -369 173
-483 199 -86 20 -252 20 -336 1 -91 -22 -191 -78 -250 -140 -28 -30 -51 -48
-51 -40 0 20 90 107 142 138 78 45 153 66 313 86 6 0 49 -4 95 -9z m-3591
-628 c31 -26 80 -65 109 -87 28 -21 52 -41 52 -43 0 -14 -139 89 -202 151 -46
44 -21 31 41 -21z"/>
<path d="M7274 6350 c1 -47 8 -94 15 -105 l13 -20 -7 20 c-4 11 -11 58 -15
105 l-8 85 2 -85z"/>
<path d="M7300 6213 c0 -14 65 -100 94 -125 31 -27 98 -65 126 -72 14 -4 2 4
-26 18 -63 29 -128 86 -166 145 -15 25 -28 40 -28 34z"/>
<path d="M10378 7643 c7 -3 16 -2 19 1 4 3 -2 6 -13 5 -11 0 -14 -3 -6 -6z"/>
<path d="M10728 7643 c7 -3 16 -2 19 1 4 3 -2 6 -13 5 -11 0 -14 -3 -6 -6z"/>
<path d="M10438 7633 c7 -3 16 -2 19 1 4 3 -2 6 -13 5 -11 0 -14 -3 -6 -6z"/>
<path d="M10668 7633 c6 -2 18 -2 25 0 6 3 1 5 -13 5 -14 0 -19 -2 -12 -5z"/>
<path d="M10523 7623 c20 -2 54 -2 75 0 20 2 3 4 -38 4 -41 0 -58 -2 -37 -4z"/>
<path d="M3067 7423 c-19 -27 -355 -509 -748 -1073 -392 -564 -758 -1090 -814
-1170 -55 -80 -163 -235 -240 -345 -76 -110 -178 -256 -226 -325 -48 -69 -118
-169 -156 -223 -37 -54 -88 -126 -113 -160 l-45 -62 -5 -272 -5 -272 70 -5
c79 -6 247 -14 470 -21 190 -7 1515 -63 1614 -69 40 -2 76 -8 80 -13 4 -4 -4
-263 -18 -575 -13 -313 -22 -570 -19 -573 5 -6 267 -20 558 -30 91 -3 317 -12
504 -21 186 -8 340 -14 341 -12 1 2 6 68 9 148 l7 145 -120 -3 c-184 -5 -352
33 -516 115 -84 42 -203 125 -230 162 l-19 26 34 -26 c97 -72 143 -101 225
-142 106 -53 192 -80 312 -102 95 -16 279 -20 301 -6 11 6 18 102 32 421 10
227 21 414 24 417 4 5 398 -11 574 -23 l82 -5 0 38 c0 21 7 175 15 343 8 167
13 306 11 307 -1 2 -148 10 -326 18 -178 8 -325 16 -327 19 -2 2 12 370 32
817 19 448 42 967 50 1153 8 187 14 341 12 342 -2 2 -25 -15 -52 -37 -146
-120 -375 -169 -568 -119 -76 19 -115 37 -357 163 -239 125 -392 145 -535 71
l-50 -26 24 26 c13 14 44 32 70 41 127 43 261 25 440 -61 62 -29 118 -51 124
-47 6 3 7 1 3 -5 -8 -14 50 -46 66 -36 6 4 8 3 5 -3 -8 -13 114 -74 198 -99
44 -14 91 -19 180 -19 107 1 129 4 205 31 89 31 176 82 222 131 26 27 27 32
37 213 16 298 35 809 30 813 -2 3 -227 14 -499 26 -272 13 -567 26 -655 31
-88 5 -188 9 -222 10 l-61 0 -35 -47z m1163 -57 c-21 -21 -156 -73 -248 -97
-142 -36 -316 -45 -435 -23 -56 11 -15 16 125 15 194 -2 352 28 508 98 54 24
69 26 50 7z m-1736 -1835 c42 -20 92 -59 148 -113 94 -93 204 -225 195 -235
-4 -3 -17 7 -29 23 -59 75 -175 199 -226 240 -77 63 -141 93 -214 101 -46 5
-57 8 -43 14 35 15 104 2 169 -30z m543 -263 c-3 -68 -16 -355 -28 -638 -12
-283 -22 -516 -23 -517 -3 -4 -848 36 -853 40 -3 3 8 23 25 44 39 50 306 415
617 846 138 190 254 346 259 346 5 1 7 -50 3 -121z m639 -616 c60 -51 159
-104 239 -128 131 -39 330 -17 453 52 24 13 42 18 40 11 -7 -21 -103 -67 -184
-87 -181 -46 -352 -12 -517 103 -61 43 -137 129 -137 155 0 8 13 -3 29 -25 15
-21 50 -58 77 -81z m-1801 -616 c33 -9 107 -39 163 -66 57 -28 108 -47 113
-44 5 3 8 1 7 -4 -2 -5 33 -34 77 -63 44 -30 150 -102 235 -161 173 -118 294
-182 420 -223 72 -24 103 -28 200 -29 176 -1 258 27 538 186 263 148 386 190
567 190 179 0 330 -44 485 -140 115 -71 273 -240 306 -326 15 -38 -14 -10 -51
50 -78 126 -213 242 -367 313 -122 57 -229 81 -362 81 -192 0 -301 -37 -583
-196 -255 -144 -369 -184 -523 -184 -204 0 -384 77 -699 300 -185 131 -220
152 -232 145 -5 -4 -8 -1 -7 6 4 15 -202 121 -224 115 -10 -2 -16 -1 -13 4 9
14 -118 43 -210 47 -151 8 -277 -27 -371 -103 -30 -24 -54 -40 -54 -35 0 6 20
27 45 47 24 21 41 42 38 47 -3 6 -2 7 4 4 5 -3 38 5 72 19 34 14 81 29 104 34
61 13 253 5 322 -14z"/>
<path d="M9516 7131 c2 -24 4 -59 4 -77 l0 -34 94 0 93 0 7 41 c4 23 2 56 -4
74 l-11 33 -50 -34 c-28 -19 -59 -34 -68 -34 -25 0 -59 28 -64 53 -3 12 -3 2
-1 -22z"/>
<path d="M9742 7070 c0 -14 2 -19 5 -12 2 6 2 18 0 25 -3 6 -5 1 -5 -13z"/>
<path d="M9283 7002 c-31 -9 -67 -42 -57 -51 5 -4 51 -5 102 -3 101 4 117 16
57 45 -37 18 -64 20 -102 9z"/>
<path d="M9253 6900 c-45 -27 -42 -44 3 -25 42 17 94 19 142 6 25 -8 32 -7 29
2 -12 39 -122 49 -174 17z"/>
<path d="M8672 6895 c-40 -17 -34 -35 11 -35 18 0 74 -7 126 -15 52 -9 96 -13
99 -11 9 10 -23 39 -63 57 -48 22 -127 24 -173 4z"/>
<path d="M9040 6908 c0 -12 60 -288 81 -371 11 -43 17 -82 14 -87 -4 -6 -32
-10 -63 -10 -41 0 -53 -3 -42 -10 24 -15 106 -12 120 5 15 18 12 37 -46 268
-37 152 -63 233 -64 205z"/>
<path d="M9310 6801 c-15 -29 -12 -46 10 -66 41 -37 107 14 81 64 -16 28 -76
30 -91 2z"/>
<path d="M9741 6794 c1 -16 5 -40 9 -54 6 -17 7 -9 3 25 -6 56 -14 74 -12 29z"/>
<path d="M8731 6782 c-47 -23 -55 -46 -11 -31 32 12 131 8 165 -6 18 -8 19 -7
5 10 -18 22 -70 45 -102 45 -13 0 -38 -8 -57 -18z"/>
<path d="M9761 6700 c-1 -21 46 -119 76 -158 28 -37 108 -92 132 -92 9 0 -2 9
-24 19 -74 34 -132 106 -170 210 -8 20 -14 29 -14 21z"/>
<path d="M10725 6690 c-13 -5 -14 -9 -5 -9 8 0 24 4 35 9 13 5 14 9 5 9 -8 0
-24 -4 -35 -9z"/>
<path d="M10670 6670 c-8 -5 -10 -10 -5 -10 6 0 17 5 25 10 8 5 11 10 5 10 -5
0 -17 -5 -25 -10z"/>
<path d="M13945 6624 c-112 -58 -157 -175 -115 -303 18 -58 20 -76 11 -102 -6
-18 -11 -37 -10 -43 0 -6 8 11 18 38 14 39 24 52 47 59 38 12 81 53 105 99 24
48 26 170 3 228 -18 45 -18 45 -59 24z"/>
<path d="M8825 6320 c3 -5 15 -10 26 -10 35 0 93 -30 131 -67 21 -20 40 -35
42 -32 11 11 -42 84 -74 100 -37 20 -136 27 -125 9z"/>
<path d="M977 5360 c-51 -13 -90 -34 -133 -72 -38 -34 -84 -99 -84 -120 0 -7
-17 -30 -37 -52 -21 -22 -28 -32 -15 -21 20 17 39 19 140 20 126 0 149 7 242
69 50 34 140 115 140 126 0 4 -20 17 -44 29 -52 24 -155 34 -209 21z"/>
<path d="M6467 4282 c-15 -15 -27 -33 -27 -39 0 -6 19 -25 43 -43 l42 -31 3
57 c5 91 -12 107 -61 56z"/>
<path d="M11103 3022 c-117 -41 -191 -138 -208 -272 -4 -30 -16 -71 -27 -90
l-20 -35 21 25 c11 14 21 27 21 30 0 4 28 12 62 19 82 17 146 50 202 106 52
53 124 167 128 205 3 24 1 25 -62 27 -42 2 -83 -3 -117 -15z"/>
<path d="M4921 2946 c127 -157 217 -254 405 -436 101 -97 152 -152 127 -137
-16 10 3 -67 31 -128 48 -103 148 -188 261 -221 44 -12 80 -15 144 -11 80 5
151 23 151 38 0 13 -86 127 -133 176 -111 114 -239 174 -378 176 l-79 0 -142
137 c-79 76 -199 202 -268 280 -167 191 -195 221 -119 126z"/>
<path d="M9361 2719 c-115 -22 -239 -110 -308 -216 -24 -38 -47 -60 -83 -78
-28 -14 -50 -27 -50 -30 0 -3 24 7 53 21 l54 27 69 -28 c81 -33 218 -44 303
-26 108 23 244 88 349 167 l42 32 -38 31 c-110 86 -262 126 -391 100z"/>
<path d="M5125 2675 c3 -11 12 -45 19 -76 l14 -56 -34 -49 c-52 -76 -69 -136
-69 -239 1 -90 36 -245 57 -245 5 0 29 19 54 42 135 124 148 307 32 451 -18
23 -36 62 -44 99 -8 33 -19 68 -25 77 -9 13 -10 13 -4 -4z"/>
<path d="M12369 1427 c-65 -25 -137 -86 -124 -107 3 -6 3 -10 -2 -9 -4 1 -19
-3 -33 -9 -19 -8 -21 -11 -7 -11 10 -1 33 -12 50 -25 48 -37 117 -51 170 -36
87 24 197 110 184 143 -8 22 -95 58 -150 63 -30 2 -67 -1 -88 -9z"/>
<path d="M12148 1283 c6 -2 18 -2 25 0 6 3 1 5 -13 5 -14 0 -19 -2 -12 -5z"/>
</g>
</svg>
