<svg xmlns="http://www.w3.org/2000/svg" width="100" height="98" viewBox="0 0 100 98" version="1.1"><path d="" stroke="#DE4545" fill="#DE4545" fill-rule="evenodd"/><path d="M 56 27.092 C 39.775 36.379, 26.374 44.557, 26.220 45.266 C 26.039 46.094, 29.437 47.703, 35.720 49.764 L 45.500 52.974 48.852 62.491 C 52.311 72.313, 52.920 73.346, 54.561 72.184 C 55.319 71.648, 63.816 61.488, 64.577 60.208 C 64.673 60.047, 67.338 61.059, 70.500 62.458 C 75.931 64.859, 80 65.702, 80 64.426 C 80 64.110, 82.025 52.770, 84.500 39.226 C 89.602 11.304, 89.729 9.957, 87.250 10.103 C 86.287 10.160, 72.225 17.805, 56 27.092 M 55 32.104 C 44.275 38.178, 34.946 43.465, 34.268 43.853 C 33.550 44.265, 35.974 45.559, 40.085 46.958 L 47.133 49.358 61.312 35.179 C 69.111 27.381, 75.268 21.014, 74.996 21.031 C 74.723 21.048, 65.725 26.031, 55 32.104 M 70.857 37.962 L 59.215 53.733 67.956 57.214 L 76.697 60.694 79.958 41.790 C 81.752 31.393, 83.057 22.729, 82.860 22.538 C 82.662 22.347, 77.261 29.288, 70.857 37.962 M 58.342 43.250 L 49.223 52.500 50.965 57.500 L 52.707 62.500 53.477 58.038 C 54.053 54.703, 56.118 51.107, 61.660 43.788 C 65.737 38.405, 68.710 34, 68.267 34 C 67.823 34, 63.357 38.163, 58.342 43.250 M 57 58.950 C 57 59.987, 56.733 61.661, 56.407 62.668 C 55.983 63.976, 56.406 63.785, 57.885 62 C 60.372 58.997, 60.458 58.390, 58.500 57.638 C 57.493 57.252, 57 57.683, 57 58.950 M 11 73.385 C 11 75.226, 15.785 78.296, 17.581 77.607 C 19.832 76.744, 19.244 75.178, 16.050 73.526 C 12.392 71.634, 11 71.595, 11 73.385 M 39.750 74.080 C 37.651 75.303, 37.422 78, 39.418 78 C 42.176 78, 44 76.763, 44 74.893 C 44 72.810, 42.443 72.512, 39.750 74.080 M 22.178 78.688 C 22.638 81.075, 30.500 81.370, 30.500 79 C 30.500 77.945, 29.213 77.407, 26.165 77.188 C 22.432 76.920, 21.878 77.128, 22.178 78.688" stroke="none" fill="#228b22" fill-rule="evenodd"/></svg>
